<?xml version="1.0" encoding="utf-8" ?>
<svg xmlns="http://www.w3.org/2000/svg" xmlns:xlink="http://www.w3.org/1999/xlink" width="757" height="517" viewBox="220 140 320 320">
	<path fill="#011627" transform="scale(0.739258 0.739258)" d="M446.827 462.07C452.802 467.055 458.048 473.219 463.545 478.735Q484.567 499.628 504.641 521.435L503.572 521.974C499.053 516.512 449.069 464.299 446.894 463.771C445.757 464.543 445.386 464.572 444.988 465.865C447.755 470.518 451.018 468.355 449.323 475.955C448.383 480.172 444.397 482.748 442.107 486.209C439.791 489.709 438.914 494.004 436.718 497.544C435.946 498.787 434.871 500.116 433.568 500.833C432.082 501.652 430.471 501.642 429.058 502.692C446.369 520.137 464.089 537.525 481.907 554.453L481.764 554.733L480.736 554.632C469.966 545.228 459.875 534.292 449.752 524.164C438.865 513.271 427.636 502.813 416.965 491.689C427.38 482.252 436.847 471.944 446.827 462.07Z"/>
	
	<path fill="#011627" transform="scale(0.739258 0.739258)" d="M537.41 311.675C539.467 282.857 557.981 250.849 579.234 232.093C604.875 209.465 639.754 196.275 674.122 198.485C673.854 198.618 673.589 198.758 673.317 198.884C671.275 199.828 665.668 199.257 664.679 201.186L665.984 202.381C662.667 205.497 659.075 208.26 655.868 211.502C655.252 211.498 653.864 211.305 653.337 211.486C650.395 212.501 645.864 217.113 642.832 218.924C640.182 220.507 636.776 220.514 634.315 222.17C629.544 225.38 625.503 229.46 620.357 232.144C620.296 231.981 620.239 231.816 620.175 231.654C619.855 230.841 619.971 231.127 619.433 230.234C617.267 231.579 613.051 235.343 611.835 237.558C612.05 239.04 612.508 239.926 611.446 241.187C608.344 244.873 599.628 245.849 595.288 248.16C590.247 250.845 586.238 255.198 581.8 258.721C578.858 261.056 575.192 262.137 572.242 264.362C569.259 266.611 564.776 274.154 564.465 277.837C564.445 278.066 564.442 278.295 564.431 278.524L566.232 279.449C566.602 280.806 566.577 281.408 565.903 282.68C562.467 289.158 555.132 290.5 551.157 295.172C549.717 296.864 549.347 299.588 547.856 301.106C546.353 302.636 543.315 302.128 541.789 303.751C539.898 305.761 539.148 309.333 537.41 311.675Z"/>
	

	<path fill="#011627" transform="scale(0.739258 0.739258)" d="M417.16 253.283C415.6 253.767 414.035 254.251 412.447 254.635C404.348 256.592 395.775 255.801 388.591 251.358Q387.976 250.976 387.381 250.564Q386.786 250.152 386.213 249.711Q385.639 249.27 385.087 248.802Q384.536 248.333 384.008 247.838Q383.48 247.343 382.977 246.822Q382.475 246.301 381.998 245.756Q381.522 245.212 381.073 244.644Q380.624 244.076 380.204 243.487Q379.783 242.898 379.392 242.289Q379.002 241.68 378.641 241.053Q378.281 240.425 377.952 239.78Q377.623 239.136 377.326 238.476Q377.029 237.816 376.766 237.142Q376.502 236.468 376.271 235.782Q376.041 235.096 375.845 234.399Q375.649 233.702 375.487 232.997Q375.315 232.268 375.181 231.531Q375.046 230.794 374.948 230.051Q374.851 229.308 374.791 228.562Q374.731 227.815 374.708 227.066Q374.686 226.317 374.701 225.568Q374.716 224.819 374.769 224.072Q374.822 223.325 374.912 222.581Q375.003 221.837 375.13 221.099Q375.258 220.361 375.422 219.63Q375.587 218.899 375.788 218.178Q375.989 217.456 376.226 216.745Q376.463 216.035 376.735 215.337Q377.008 214.639 377.315 213.956Q377.622 213.272 377.963 212.605Q378.304 211.938 378.678 211.289Q379.053 210.64 379.459 210.011C383.759 203.376 390.407 198.351 398.204 196.712C405.955 195.084 414.618 196.837 421.193 201.246C429.481 206.804 433.637 214.338 435.466 223.991C444.767 227.689 452.852 231.845 459.859 239.159C477.429 257.499 475.946 278.834 475.418 302.298C475.286 302.483 475.129 302.652 475.021 302.852C473.327 306.008 476.292 311.233 473.718 314.071L473.428 313.2C472.422 313.057 469.877 313.714 469.446 313.451C467.166 312.058 468.702 310.655 464.029 314.021C461.144 316.1 458.709 318.756 455.843 320.849C453.901 322.267 450.845 323.277 449.179 324.837C447.276 326.62 445.582 332.014 444.63 334.583C443.603 335.139 443.428 335.241 442.26 334.768C441.897 334.622 441.379 334.293 441.032 334.083C439.996 335.166 439.834 337.007 439.5 338.43C439.547 334.69 440.219 329.704 439.008 326.182C438.565 322.918 438.82 319.253 438.841 315.944C438.921 303.726 440.914 282.296 436.384 271.165C432.821 262.412 425.614 256.881 417.16 253.283Z"/>


	<path fill="#011627" transform="scale(0.739258 0.739258)" d="M264.609 223.811C267.492 213.831 272.111 205.647 281.352 200.278C288.446 196.156 296.526 194.746 304.519 196.993C313.129 199.413 320.739 204.541 325.072 212.506C328.797 219.353 329.431 227.057 327.179 234.516C324.893 242.083 320.085 248.181 313.011 251.851C304.022 256.515 294.186 256.21 284.717 253.224C277.58 257.18 271.543 261.744 267.56 269.043Q266.787 270.439 266.158 271.905Q265.529 273.371 265.051 274.894Q264.572 276.416 264.25 277.978Q263.927 279.541 263.763 281.128C263.052 287.684 263.777 294.676 263.788 301.298C263.82 320.719 261.752 344.816 267.357 363.296C274.571 387.082 291.64 404.653 313.146 416.239L313.538 417.163C318.692 419.574 323.821 421.317 329.359 422.641C332.824 423.47 337.608 423.713 340.688 425.396C339.276 425.605 337.882 425.578 336.459 425.573L336.213 426.023C337.119 426.422 336.661 426.246 337.586 426.552C338.669 431.919 333.393 437.731 332.478 443.177C332.082 445.535 330.626 446.953 329.092 448.693C327.666 450.31 325.784 452.888 326.134 455.215C326.258 456.045 326.706 457.12 326.963 457.916L326.653 458.339C317.269 458.783 292.086 446.073 283.952 441.315C280.992 439.583 274.356 433.261 271.556 433.276C259.438 426.512 240.658 398.719 235.578 385.977Q232.893 379.217 231.056 372.179Q229.219 365.141 228.257 357.931C226.245 342.579 227.21 326.14 227.125 310.636C227.054 297.572 226.033 283.755 227.456 270.783C228.134 264.602 229.882 258.678 232.347 252.982C238.179 239.504 251.237 229.172 264.609 223.811Z"/>
	<defs>
		<linearGradient id="gradient_0" gradientUnits="userSpaceOnUse" x1="367.88144" y1="390.01614" x2="517.26874" y2="575.21399">
			<stop offset="0" stop-color="#011627"/>
			<stop offset="1" stop-color="#011627"/>
		</linearGradient>
	</defs>
	<path fill="url(#gradient_0)" transform="scale(0.739258 0.739258)" d="M439.5 338.43C439.834 337.007 439.996 335.166 441.032 334.083C441.379 334.293 441.897 334.622 442.26 334.768C443.428 335.241 443.603 335.139 444.63 334.583C445.582 332.014 447.276 326.62 449.179 324.837C450.845 323.277 453.901 322.267 455.843 320.849C458.709 318.756 461.144 316.1 464.029 314.021C468.702 310.655 467.166 312.058 469.446 313.451C469.877 313.714 472.422 313.057 473.428 313.2L473.718 314.071C476.292 311.233 473.327 306.008 475.021 302.852C475.129 302.652 475.286 302.483 475.418 302.298C475.669 319.999 476.575 338.61 474.246 356.166C470.749 382.514 457.17 407.159 438.764 426.046C420.166 445.13 396.809 455.053 371.165 460.298L371.074 499.031C371.021 523.391 369.698 545.144 388.326 563.939C398.925 574.633 414.569 580.255 429.491 580.288C445.822 580.323 458.522 574.593 471.052 564.534C474.563 561.581 477.542 557.928 480.736 554.632L481.764 554.733C489.633 564.473 500.371 572.062 508.458 581.947C504.308 585.097 500.613 589.017 496.949 592.716C480.582 609.607 456.939 618.301 433.744 618.989C406.346 619.801 382.169 610.048 362.364 591.234Q360.834 589.784 359.372 588.266Q357.909 586.747 356.518 585.164Q355.126 583.58 353.808 581.935Q352.491 580.289 351.249 578.586Q350.008 576.882 348.845 575.123Q347.683 573.364 346.602 571.555Q345.521 569.745 344.524 567.887Q343.527 566.03 342.615 564.129Q341.704 562.229 340.88 560.288Q340.056 558.348 339.322 556.372Q338.587 554.396 337.944 552.388Q337.3 550.381 336.749 548.346Q336.198 546.311 335.74 544.254Q335.282 542.196 334.919 540.119Q334.555 538.043 334.287 535.952Q334.019 533.861 333.846 531.76C333.103 523.122 333.513 514.175 333.516 505.499Q333.688 483.085 333.194 460.675C311.665 456.705 288.043 448.296 271.556 433.276C274.356 433.261 280.992 439.583 283.952 441.315C292.086 446.073 317.269 458.783 326.653 458.339L326.963 457.916C326.706 457.12 326.258 456.045 326.134 455.215C325.784 452.888 327.666 450.31 329.092 448.693C330.626 446.953 332.082 445.535 332.478 443.177C333.393 437.731 338.669 431.919 337.586 426.552C336.661 426.246 337.119 426.422 336.213 426.023L336.459 425.573C337.882 425.578 339.276 425.605 340.688 425.396C337.608 423.713 332.824 423.47 329.359 422.641C323.821 421.317 318.692 419.574 313.538 417.163L313.146 416.239C316.602 417.415 319.871 419.072 323.328 420.246C331.944 423.169 341.446 424.57 350.524 424.747C373.363 425.19 395.884 415.66 412.204 399.857C425.088 387.38 435.489 371.015 437.945 352.932C439.14 344.131 438.898 335.055 439.008 326.182C440.219 329.704 439.547 334.69 439.5 338.43Z"/>
	
	<path fill="#011627" transform="scale(0.739258 0.739258)" d="M648.13 472.391C649.557 469.891 648.021 463.182 648.678 459.982C652.704 459.128 660.616 460.529 664.909 460.696C668.899 460.851 673.062 461.018 677.043 460.71C679.923 460.487 682.635 459.834 685.542 459.854C686.728 461.308 686.508 464.371 686.588 466.244C687.136 478.012 686.76 489.95 686.775 501.735C686.818 536.963 685.887 559.425 660.741 587.068C642.529 607.087 618.38 618.721 591.287 619.823C565.841 620.858 540.626 612.686 521.792 595.229C517.372 591.132 512.268 586.59 508.458 581.947C500.371 572.062 489.633 564.473 481.764 554.733L481.907 554.453C464.089 537.525 446.369 520.137 429.058 502.692C430.471 501.642 432.082 501.652 433.568 500.833C434.871 500.116 435.946 498.787 436.718 497.544C438.914 494.004 439.791 489.709 442.107 486.209C444.397 482.748 448.383 480.172 449.323 475.955C451.018 468.355 447.755 470.518 444.988 465.865C445.386 464.572 445.757 464.543 446.894 463.771C449.069 464.299 499.053 516.512 503.572 521.974L504.641 521.435L507.589 524.814C514.401 517.896 521.617 511.388 528.575 504.619Q550.255 483.299 572.584 462.66C582.571 472.179 591.776 482.399 601.672 491.981C585.162 509.335 567.275 525.625 550.07 542.305C545.473 546.762 540.358 550.803 535.98 555.455C539.757 558.421 543.021 562.288 546.737 565.408Q547.783 566.287 548.865 567.122Q549.948 567.956 551.063 568.745Q552.179 569.534 553.327 570.276Q554.474 571.018 555.651 571.712Q556.829 572.406 558.034 573.05Q559.239 573.694 560.47 574.288Q561.701 574.881 562.955 575.423Q564.21 575.965 565.485 576.455Q566.761 576.944 568.056 577.38Q569.352 577.817 570.664 578.198Q571.976 578.58 573.303 578.907Q574.629 579.234 575.969 579.506Q577.308 579.778 578.657 579.994Q580.007 580.21 581.364 580.369Q582.721 580.529 584.084 580.632Q585.446 580.735 586.812 580.782Q588.316 580.821 589.82 580.785Q591.324 580.749 592.824 580.638Q594.325 580.528 595.818 580.343Q597.311 580.159 598.793 579.9Q600.275 579.642 601.743 579.31Q603.21 578.978 604.659 578.574Q606.108 578.17 607.536 577.695Q608.963 577.22 610.365 576.674Q611.767 576.129 613.141 575.514Q614.514 574.9 615.855 574.218Q617.196 573.536 618.502 572.789Q619.808 572.042 621.075 571.231Q622.342 570.419 623.567 569.546Q624.792 568.673 625.973 567.741Q627.153 566.808 628.286 565.818Q629.419 564.828 630.501 563.783C648.199 546.804 648.108 528.53 648.057 505.761Q647.925 489.075 648.13 472.391Z"/>
	<defs>
		<linearGradient id="gradient_1" gradientUnits="userSpaceOnUse" x1="598.77948" y1="243.00163" x2="748.16205" y2="432.55441">
			<stop offset="0" stop-color="#011627"/>
			<stop offset="1" stop-color="#011627"/>
		</linearGradient>
	</defs>
	<path fill="url(#gradient_1)" transform="scale(0.739258 0.739258)" d="M674.122 198.485C705.535 199.103 738.986 215.264 760.576 237.715C787.213 265.416 799.796 297.492 799.02 335.943C798.369 368.227 784.513 400.761 761.122 423.124Q759.224 424.939 757.258 426.68Q755.293 428.422 753.263 430.087Q751.232 431.753 749.14 433.34Q747.048 434.927 744.897 436.434Q742.746 437.94 740.539 439.364Q738.333 440.788 736.074 442.126Q733.815 443.465 731.506 444.717Q729.198 445.969 726.844 447.133Q724.489 448.296 722.093 449.369Q719.696 450.443 717.26 451.424Q714.824 452.405 712.353 453.293Q709.882 454.181 707.378 454.975Q704.875 455.768 702.343 456.466Q699.812 457.164 697.256 457.765Q694.699 458.366 692.122 458.87Q689.545 459.374 686.95 459.779C686.843 461.925 686.82 464.11 686.588 466.244C686.508 464.371 686.728 461.308 685.542 459.854C682.635 459.834 679.923 460.487 677.043 460.71C673.062 461.018 668.899 460.851 664.909 460.696C660.616 460.529 652.704 459.128 648.678 459.982C648.021 463.182 649.557 469.891 648.13 472.391C647.886 468.133 648.076 463.759 648.059 459.487Q643.413 458.952 638.825 458.041C607.104 451.643 575.623 429.267 557.812 402.357C543.761 381.128 536.219 358.025 535.919 332.51C535.839 325.644 536.053 318.433 537.41 311.675C539.148 309.333 539.898 305.761 541.789 303.751C543.315 302.128 546.353 302.636 547.856 301.106C549.347 299.588 549.717 296.864 551.157 295.172C555.132 290.5 562.467 289.158 565.903 282.68C566.577 281.408 566.602 280.806 566.232 279.449L564.431 278.524C564.442 278.295 564.445 278.066 564.465 277.837C564.776 274.154 569.259 266.611 572.242 264.362C575.192 262.137 578.858 261.056 581.8 258.721C586.238 255.198 590.247 250.845 595.288 248.16C599.628 245.849 608.344 244.873 611.446 241.187C612.508 239.926 612.05 239.04 611.835 237.558C613.051 235.343 617.267 231.579 619.433 230.234C619.971 231.127 619.855 230.841 620.175 231.654C620.239 231.816 620.296 231.981 620.357 232.144C625.503 229.46 629.544 225.38 634.315 222.17C636.776 220.514 640.182 220.507 642.832 218.924C645.864 217.113 650.395 212.501 653.337 211.486C653.864 211.305 655.252 211.498 655.868 211.502C659.075 208.26 662.667 205.497 665.984 202.381L664.679 201.186C665.668 199.257 671.275 199.828 673.317 198.884C673.589 198.758 673.854 198.618 674.122 198.485Z"/>
	<path fill="#F0F0F0" transform="scale(0.739258 0.739258)" d="M662.393 247.652Q664.425 247.513 666.462 247.474Q668.499 247.435 670.535 247.495Q672.571 247.557 674.601 247.718Q676.632 247.879 678.652 248.139Q680.672 248.4 682.678 248.759Q684.683 249.119 686.667 249.577Q688.652 250.034 690.612 250.589Q692.572 251.144 694.503 251.794Q696.433 252.445 698.329 253.189Q700.225 253.934 702.082 254.77Q703.94 255.607 705.753 256.534Q707.567 257.461 709.333 258.476Q711.099 259.492 712.813 260.592Q714.527 261.693 716.185 262.876Q717.843 264.06 719.441 265.324Q721.038 266.587 722.572 267.928Q724.106 269.269 725.572 270.683Q727.037 272.097 728.432 273.582Q729.827 275.067 731.146 276.618Q732.466 278.17 733.708 279.784Q734.951 281.399 736.112 283.072Q737.273 284.746 738.351 286.475Q739.428 288.203 740.419 289.983Q741.411 291.762 742.313 293.588Q743.216 295.415 744.028 297.283Q744.839 299.151 745.558 301.057Q746.277 302.963 746.902 304.902Q747.526 306.841 748.055 308.808Q748.583 310.775 749.014 312.766Q749.445 314.757 749.778 316.767Q750.11 318.776 750.344 320.8Q750.577 322.823 750.711 324.856Q750.845 326.889 750.878 328.925Q750.912 330.962 750.846 332.998Q750.779 335.034 750.613 337.064Q750.446 339.094 750.18 341.114Q749.914 343.134 749.549 345.138Q749.184 347.142 748.721 349.125Q748.258 351.109 747.698 353.068Q747.138 355.026 746.482 356.955Q745.827 358.883 745.077 360.777Q744.327 362.672 743.486 364.526Q742.644 366.381 741.712 368.193Q740.78 370.004 739.76 371.767Q738.74 373.531 737.635 375.242Q736.53 376.953 735.341 378.608Q734.153 380.262 732.885 381.857Q731.617 383.451 730.273 384.981Q728.928 386.511 727.51 387.973Q726.091 389.435 724.603 390.826Q723.114 392.216 721.559 393.532Q720.004 394.848 718.386 396.085Q716.768 397.323 715.091 398.48Q713.415 399.637 711.683 400.709Q709.952 401.782 708.169 402.769Q706.387 403.755 704.559 404.653Q702.73 405.551 700.86 406.357Q698.989 407.164 697.081 407.878Q695.173 408.592 693.233 409.211Q691.292 409.83 689.323 410.353Q687.355 410.876 685.363 411.302Q683.371 411.727 681.36 412.055Q679.349 412.382 677.325 412.61Q675.301 412.838 673.268 412.966Q671.242 413.094 669.212 413.122Q667.182 413.151 665.154 413.079Q663.125 413.008 661.102 412.838Q659.079 412.668 657.067 412.398Q655.055 412.129 653.059 411.762Q651.062 411.394 649.086 410.929Q647.11 410.464 645.159 409.903Q643.208 409.342 641.287 408.686Q639.366 408.03 637.479 407.281Q635.593 406.532 633.745 405.691Q631.897 404.85 630.093 403.92Q628.289 402.99 626.532 401.972Q624.776 400.955 623.071 399.852Q621.366 398.75 619.718 397.565Q618.069 396.381 616.481 395.117Q614.892 393.853 613.367 392.513Q611.843 391.173 610.385 389.759Q608.928 388.346 607.542 386.863Q606.156 385.38 604.844 383.831Q603.532 382.282 602.297 380.671Q601.062 379.059 599.908 377.389Q598.754 375.719 597.683 373.995Q596.612 372.27 595.627 370.495Q594.642 368.72 593.745 366.899Q592.848 365.078 592.041 363.215Q591.234 361.353 590.52 359.453Q589.805 357.553 589.185 355.62Q588.564 353.687 588.039 351.726Q587.514 349.765 587.085 347.781Q586.656 345.797 586.326 343.794Q585.995 341.791 585.763 339.774Q585.53 337.758 585.397 335.732Q585.264 333.706 585.23 331.677Q585.196 329.647 585.261 327.618Q585.327 325.589 585.492 323.566Q585.657 321.542 585.921 319.53Q586.185 317.517 586.547 315.519Q586.909 313.522 587.368 311.545Q587.828 309.567 588.383 307.615Q588.939 305.662 589.59 303.74Q590.241 301.817 590.985 299.928Q591.729 298.039 592.565 296.189Q593.401 294.339 594.326 292.533Q595.251 290.726 596.264 288.966Q597.277 287.207 598.375 285.499Q599.472 283.792 600.653 282.14Q601.833 280.488 603.092 278.896Q604.352 277.304 605.688 275.776Q607.024 274.248 608.433 272.787Q609.842 271.326 611.322 269.935Q612.801 268.545 614.346 267.229Q615.892 265.913 617.5 264.674Q619.108 263.435 620.775 262.276Q622.442 261.117 624.163 260.042Q625.885 258.966 627.657 257.976Q629.43 256.986 631.248 256.084Q633.067 255.182 634.927 254.371Q636.788 253.559 638.686 252.839Q640.584 252.119 642.516 251.493Q644.447 250.868 646.406 250.337Q648.366 249.807 650.349 249.373Q652.332 248.939 654.334 248.602Q656.336 248.266 658.352 248.028Q660.368 247.791 662.393 247.652Z"/>
</svg>
