<?xml version="1.0" encoding="iso-8859-1"?>
<!-- Uploaded to: SVG Repo, www.svgrepo.com, Generator: SVG Repo Mixer Tools -->
<!DOCTYPE svg PUBLIC "-//W3C//DTD SVG 1.1//EN" "http://www.w3.org/Graphics/SVG/1.1/DTD/svg11.dtd">
<svg fill="#FFFFFF" version="1.1" id="Capa_1" xmlns="http://www.w3.org/2000/svg" xmlns:xlink="http://www.w3.org/1999/xlink" 
	 width="800px" height="800px" viewBox="0 0 52.266 52.266"
	 xml:space="preserve">
<g>
	<g>
		<path d="M26.056,52.03c14.391,0.39,25.825-12.087,26.201-25.965C52.649,11.554,40.053,0.602,26.208,0.227
			C11.813,0.617,0.401,11.726,0.009,26.192C-0.383,40.703,12.211,51.655,26.056,52.03z M10.009,44.123
			c2.49-3.996,4.962-8.006,7.425-12.021c0.031-0.051,0.041-0.107,0.063-0.162c0.515,0.413,1.055,0.879,1.612,1.361
			c-0.149,0.257-0.298,0.513-0.449,0.766c-0.92,1.549-1.822,3.109-2.713,4.676c-0.402,0.672-0.805,1.344-1.213,2.014
			c-1.049,1.582-2.102,3.162-3.159,4.74C11.036,45.061,10.511,44.604,10.009,44.123z M25.559,21.468
			c0.859,1.191,3.846,0.707,4.974,0.707c2.633,0,5.266,0,7.898,0c0.159,0,0.689,6.372-0.092,7.458
			c-3.876-0.053-8.77-0.936-12.336,0.541c-1.512,0.627-0.957,3.953-0.942,5.127c-1.18-0.877-2.357-1.756-3.536-2.633
			c-2.408-1.793-4.815-3.588-7.223-5.381c-1.582-1.179-2.317-1.206-0.609-2.477c2.33-1.736,4.661-3.472,6.992-5.207
			c1.192-0.889,2.871-2.61,4.385-3.406C25.33,17.924,24.468,19.954,25.559,21.468z M26.122,14.402
			c0.41-0.646,0.819-1.293,1.226-1.94c0.293-0.469,0.295-0.469,0.006,0.002c-0.396,0.646-0.791,1.291-1.188,1.938
			c-0.001,0.002-0.002,0.004-0.003,0.007C26.149,14.405,26.136,14.404,26.122,14.402z M33.411,32.178
			c-0.361,1.031-0.729,2.06-1.097,3.091c-0.185,0.521-0.571,1.323-0.868,1.789c-1.113,1.755-2.283,3.519-3.515,5.255
			c-0.319,0.449-0.377,0.415-0.123-0.074c1.361-2.613,2.738-5.219,4.16-7.805c0.428-0.775,0.855-1.551,1.285-2.326
			C33.521,31.625,33.592,31.655,33.411,32.178z M15.902,30.846c0.055,0.033,0.103,0.064,0.155,0.096
			c-0.023,0.029-0.052,0.048-0.072,0.081c-0.863,1.409-1.725,2.819-2.59,4.228c-0.289,0.471-0.301,0.463-0.025-0.016
			c0.828-1.438,1.66-2.871,2.5-4.301C15.886,30.905,15.888,30.873,15.902,30.846z M14.335,45.615
			c1.031-1.984,2.098-3.953,3.191-5.908c1.095-1.656,2.188-3.312,3.279-4.968c0.277,0.226,0.556,0.447,0.838,0.66
			c-1.527,2.367-3.091,4.711-4.725,7.011c-0.809,1.102-1.625,2.198-2.443,3.293C14.146,46.146,14.082,46.105,14.335,45.615z
			 M20.721,49.989c-2.023-0.466-3.939-1.211-5.717-2.19c1.374-1.766,2.706-3.557,4-5.375c1.443-1.961,2.862-3.937,4.238-5.938
			c0.741,0.435,1.49,0.772,2.24,0.944c0.452,0.104,1.065-0.178,1.254-0.605c0.976-2.21-1.102-5.697,2.161-5.697
			c0.845,0,1.689,0,2.532,0c-0.085,0.088-0.167,0.178-0.224,0.274c-3.549,6.112-7.025,12.269-10.443,18.455
			C20.738,49.901,20.738,49.944,20.721,49.989z M26.813,50.512c-0.201,0.011-0.402,0.025-0.605,0.031
			c-0.897,0.023-1.777-0.01-2.645-0.09c0.224-0.42,0.676-1.061,1.028-1.464c1.598-1.831,3.109-3.745,4.549-5.696
			c0.328-0.443,0.438-0.385,0.25,0.133c-0.854,2.357-1.715,4.713-2.574,7.068C26.814,50.5,26.815,50.506,26.813,50.512z
			 M29.491,49.074c1.489-4.104,2.979-8.207,4.448-12.316c0.187-0.521,0.58-1.316,0.877-1.783c0.75-1.182,1.479-2.375,2.197-3.576
			c0.059-0.096,0.08-0.186,0.099-0.271c0.366,0,0.733,0,1.102,0c-0.051,0.098-0.104,0.199-0.156,0.31
			c-2.856,5.875-5.655,11.78-8.477,17.677C29.342,49.609,29.303,49.592,29.491,49.074z M50.294,26.192
			c0.229,8.489-4.256,15.819-10.859,20.163c0.55-1.289,1.098-2.579,1.639-3.871c2.9-5.788,6.005-11.477,9.18-17.129
			C50.268,25.634,50.286,25.912,50.294,26.192z M49.201,19.396c-1.192,2.545-2.401,5.082-3.597,7.621
			c-2.487,5.293-4.719,10.702-6.973,16.103c-0.833,1.67-1.639,3.354-2.436,5.043c-1.545,0.721-3.167,1.291-4.845,1.693
			C36.778,38.529,42.107,27.149,47.92,16.03C48.424,17.111,48.852,18.234,49.201,19.396z M46.504,13.397
			c0.124,0.201,0.244,0.404,0.363,0.608c-1.986,3.743-3.907,7.521-5.797,11.315c-0.002-0.336-0.021-0.665-0.053-0.989
			C42.947,20.741,44.768,17.088,46.504,13.397z M44.799,12.417c-1.459,3.11-2.978,6.192-4.558,9.241
			c-0.147-0.23-0.312-0.434-0.498-0.587c0.014-0.031,0.029-0.055,0.044-0.088c0.139-0.33,0.274-0.661,0.412-0.992
			c0.213-0.51,0.619-1.307,0.903-1.778c1.188-1.956,2.386-3.905,3.591-5.852C44.985,11.893,45.034,11.917,44.799,12.417z
			 M40.709,6.929c0.645,0.503,1.262,1.039,1.852,1.604c-0.822,2.729-1.836,5.409-2.926,8.069c-0.708,1.369-1.433,2.729-2.164,4.086
			c-1.596,0-3.19,0-4.786,0c2.667-4.57,5.306-9.162,8.01-13.713C40.703,6.96,40.703,6.943,40.709,6.929z M36.574,4.314
			c0.62,0.31,1.223,0.647,1.81,1.006c-0.023,0.028-0.058,0.045-0.079,0.076c-0.979,1.425-1.953,2.852-2.924,4.281
			c-0.311,0.457-0.873,0.893-1.236,1.032c-0.299,0.114-0.543,0.241-0.623,0.325c-0.141,0.151-0.272,0.309-0.407,0.465
			c-0.222,0.262-0.197,0.074,0.053-0.418c1.129-2.205,2.248-4.414,3.367-6.623C36.557,4.412,36.558,4.361,36.574,4.314z
			 M34.117,5.052c-2.302,4.539-4.619,9.068-6.981,13.571c-0.003-0.695,0.091-1.513-0.006-2.377c2.295-3.751,4.595-7.5,6.913-11.237
			C34.334,4.54,34.367,4.561,34.117,5.052z M32.855,2.832c0.143,0.044,0.285,0.082,0.426,0.129c-0.046,0.05-0.103,0.093-0.139,0.15
			c-1.285,2.062-2.567,4.123-3.844,6.19c-0.291,0.47-0.293,0.468-0.008-0.006c1.229-2.054,2.408-4.136,3.508-6.262
			C32.834,2.966,32.838,2.898,32.855,2.832z M30.834,2.753c-2.187,4.327-4.724,8.469-7.333,12.572
			c-1.631,0.973-3.21,2.459-4.623,3.648c3.754-5.568,7.679-11.021,11.789-16.325C31.004,2.21,31.082,2.261,30.834,2.753z
			 M26.819,2.062c0.049-0.107,0.079-0.206,0.103-0.303c0.759,0.046,1.507,0.125,2.244,0.235c-0.059,0.053-0.125,0.101-0.17,0.159
			c-1.934,2.485-3.842,4.991-5.704,7.533c-0.326,0.445-0.385,0.411-0.135-0.081C24.428,7.113,25.651,4.602,26.819,2.062z
			 M17.648,3.821c0.093-0.17,0.187-0.342,0.279-0.513c0.065-0.024,0.134-0.046,0.2-0.07c-0.139,0.207-0.277,0.414-0.413,0.622
			C17.411,4.321,17.383,4.308,17.648,3.821z M8.877,9.11c-1.93,3.098-3.839,6.208-5.781,9.295C4.264,14.866,6.277,11.705,8.877,9.11
			z M1.972,26.066c-0.025-0.942,0.013-1.866,0.1-2.777C5.906,17.533,9.41,11.533,13.146,5.702c0.643-0.41,1.306-0.792,1.985-1.143
			C10.846,12.274,6.434,19.92,2.065,27.59C2.021,27.084,1.986,26.576,1.972,26.066z M3,32.523
			c5.97-10.007,11.272-20.47,17.76-30.085c1.332-0.328,2.696-0.557,4.084-0.662c-0.061,0.092-0.119,0.185-0.165,0.287
			c-3.104,6.799-6.641,13.391-10.314,19.918c-1.898,1.221-3.81,2.676-3.942,3.988c-0.046,0.457,0.275,0.984,0.799,1.531
			c-2.102,3.356-4.138,6.752-6.098,10.191C4.239,36.057,3.526,34.32,3,32.523z M12.639,28.711c0.56,0.418,1.167,0.822,1.75,1.194
			c-2.281,3.858-4.517,7.749-6.702,11.671c-0.478-0.601-0.928-1.223-1.352-1.863C8.417,36.037,10.53,32.377,12.639,28.711z"/>
	</g>
</g>
</svg>