<?xml version="1.0" encoding="iso-8859-1"?>
<!-- Uploaded to: SVG Repo, www.svgrepo.com, Generator: SVG Repo Mixer Tools -->
<!DOCTYPE svg PUBLIC "-//W3C//DTD SVG 1.1//EN" "http://www.w3.org/Graphics/SVG/1.1/DTD/svg11.dtd">
<svg fill="#000000" version="1.1" id="Capa_1" xmlns="http://www.w3.org/2000/svg" xmlns:xlink="http://www.w3.org/1999/xlink" 
	 width="800px" height="800px" viewBox="0 0 57.847 57.847"
	 xml:space="preserve">
<g>
	<g>
		<path d="M11.985,48.16c1.856,2.229,3.743,5.174,6.376,2.013c4.211-5.057,8.421-10.112,12.633-15.168
			c3.733-4.483-3.161-3.807-6.254-3.753c-1.762-0.873-0.763-6.697-0.763-8.167c0-0.86,0.689-5.77-0.455-6.244
			c-2.02-0.838-4.799-0.31-6.931-0.31c-1.909,0-4.809-0.594-6.64,0.164c-1.772,0.733-1.56,1.684-1.56,3.468
			c0,3.336,0,6.672,0,10.009c0,1.544-0.381,1.083-2.083,1.083c-1.185,0-2.498-0.166-3.673,0.025
			c-1.39,0.228-3.622,1.307-2.155,3.066C4.315,38.95,8.15,43.556,11.985,48.16z M10.904,44c-0.237-0.284-0.474-0.569-0.711-0.854
			c3.009-4.562,6.014-9.128,9.036-13.682c0.306-0.461,0.377-0.423,0.152,0.081c-0.47,1.052-0.964,2.092-1.483,3.118
			C15.638,36.488,13.32,40.275,10.904,44z M22.902,40.428c-0.362,1.032-0.729,2.062-1.096,3.091
			c-0.105,0.294-0.275,0.674-0.456,1.037c-0.828,0.995-1.656,1.989-2.484,2.982c0.856-1.621,1.709-3.245,2.595-4.854
			c0.427-0.775,0.856-1.551,1.285-2.326C23.013,39.875,23.084,39.906,22.902,40.428z M30.173,33.211
			c0.033-0.061,0.05-0.122,0.075-0.185c0.211,0.271,0.188,0.621-0.186,1.068c-0.396,0.475-0.791,0.95-1.186,1.425
			C29.309,34.751,29.751,33.986,30.173,33.211z M27.27,34.245c0.174-0.453,0.351-0.905,0.53-1.357
			c0.106-0.269,0.076-0.504-0.051-0.674c0.283,0.029,0.557,0.067,0.816,0.113c-0.138,0.147-0.271,0.318-0.376,0.514
			c-0.262,0.488-0.524,0.977-0.789,1.464C27.134,34.789,27.071,34.761,27.27,34.245z M23.149,32.042
			c0.002,0.002,0.004,0.003,0.007,0.004c0.024,0.012,0.043,0.033,0.068,0.044c0.042,0.018,0.104,0.02,0.165,0.022
			c0.003,0.001,0.005,0.001,0.008,0.001c0.028,0.002,0.052,0.005,0.083,0.004c0.041,0.003,0.077,0.007,0.125,0.007
			c0.172,0,0.997-0.036,2.014-0.023c-0.374,0.152-0.726,0.41-0.908,0.718c-3.218,5.425-6.372,10.89-9.476,16.381
			c-0.166-0.199-0.332-0.398-0.498-0.599c-0.853-1.023-1.705-2.047-2.558-3.071c2.975-4.279,5.756-8.676,8.077-13.304
			c0.521-0.883,1.037-1.77,1.553-2.655C22.021,30.771,22.427,31.689,23.149,32.042z M20.541,17.4c0.351,0.029,0.644,0.1,0.875,0.252
			c-0.081,0.139-0.168,0.295-0.259,0.473c-3.215,6.304-6.475,12.583-9.897,18.765c-0.844,1.505-1.69,2.998-2.551,4.472
			c-0.461-0.554-0.923-1.107-1.384-1.662c4.413-7.203,8.804-14.419,13.233-21.613C20.735,17.797,20.705,17.554,20.541,17.4z
			 M18.561,17.4c0.018,0,0.036,0,0.054,0c0.212,0,0.413-0.004,0.607-0.008c-0.265,0.106-0.486,0.256-0.592,0.426
			c-0.201,0.322-0.205,0.324-0.012,0.001C18.715,17.654,18.685,17.507,18.561,17.4z M12.476,17.4c0.376,0,0.752,0,1.128,0
			c-0.342,0.138-0.661,0.345-0.845,0.589c-0.314,0.415-0.39,0.419-0.179,0.001C12.704,17.746,12.645,17.538,12.476,17.4z
			 M14.802,18.042c0.196-0.269,0.188-0.495,0.046-0.642c0.798,0,1.596,0,2.394,0c-0.352,0.155-0.68,0.402-0.855,0.695
			c-1.945,3.259-4.01,6.455-6.065,9.654c0-1.125,0-2.249,0-3.374C11.792,22.247,13.279,20.132,14.802,18.042z M10.766,17.4
			c0.148,0,0.296,0,0.444,0c-0.347,0.161-0.665,0.419-0.821,0.727c-0.025,0.05-0.051,0.1-0.077,0.149
			C10.246,17.515,9.748,17.4,10.766,17.4z M9.244,32.706c2.476-4.034,5.091-7.984,7.596-11.994c0.293-0.468,0.294-0.468,0.005,0.002
			c-3.585,5.838-7.156,11.685-10.736,17.527C6.072,38.198,6.036,38.154,6,38.11C7.068,36.301,8.146,34.495,9.244,32.706z
			 M4.703,32.797c0.165-0.254,0.167-0.475,0.053-0.628c0.897,0.05,1.907,0.108,2.823,0.014c-0.143,0.155-0.31,0.373-0.466,0.623
			c-0.701,1.12-1.394,2.244-2.07,3.376c-0.091,0.152-0.18,0.305-0.269,0.458c-0.283-0.34-0.567-0.681-0.85-1.021
			c-0.172-0.206-0.381-0.443-0.594-0.694C3.782,34.212,4.241,33.503,4.703,32.797z M3.198,32.145
			c-0.333,0.159-0.637,0.399-0.799,0.683c-0.072,0.127-0.145,0.254-0.217,0.381C2.003,32.655,2.205,32.23,3.198,32.145z"/>
		<path d="M39.494,7.677c-4.211,5.056-8.422,10.112-12.633,15.168c-3.759,4.514,3.194,3.853,6.283,3.804
			c1.727,0.905,0.738,6.67,0.738,8.135c0,0.858-0.692,5.785,0.459,6.264c2.033,0.844,4.789,0.322,6.935,0.322
			c1.906,0,4.814,0.597,6.642-0.159c1.769-0.732,1.55-1.737,1.55-3.506c0-3.336,0-6.672,0-10.008c0-1.519,0.428-1.05,2.092-1.05
			c1.189,0,2.493,0.158,3.674-0.022c1.434-0.218,3.568-1.401,2.144-3.113c-3.835-4.604-7.67-9.209-11.506-13.813
			C44.005,7.458,42.132,4.509,39.494,7.677z M53.591,25.298c0.388-0.689,0.771-1.381,1.149-2.075
			c0.122,0.147,0.245,0.295,0.367,0.441c-0.265,0.535-0.529,1.07-0.794,1.606c-0.089,0.18-0.108,0.339-0.1,0.479
			c-0.354-0.011-0.679-0.037-0.882-0.037c-0.037,0-0.074-0.001-0.111-0.001C53.371,25.587,53.505,25.45,53.591,25.298z
			 M52.115,23.747c0.317-0.837,0.646-1.669,0.981-2.497c0.107,0.128,0.214,0.257,0.321,0.385c-0.388,0.727-0.776,1.451-1.171,2.173
			C51.982,24.293,51.921,24.264,52.115,23.747z M29.941,25.603c-0.897-0.106-1.695-0.289-2.12-0.601
			c0.04-0.069,0.08-0.139,0.12-0.208c1.101-1.751,2.227-3.486,3.367-5.211c0.035-0.042,0.069-0.083,0.104-0.125
			c3.225-3.873,6.449-7.746,9.676-11.619C37.497,13.83,33.519,19.615,29.941,25.603z M32.446,25.315
			c-0.096,0.156-0.118,0.295-0.111,0.421c-0.163-0.002-0.331-0.004-0.503-0.009c0.157-0.125,0.301-0.263,0.394-0.418
			c0.617-1.036,1.236-2.071,1.866-3.098c2.476-4.034,5.091-7.984,7.596-11.994c0.293-0.468,0.294-0.468,0.005,0.003
			C38.604,15.247,35.526,20.282,32.446,25.315z M34.724,25.819c-0.018-0.018-0.043-0.035-0.076-0.049
			c-0.006-0.003-0.011-0.009-0.018-0.011c-0.004-0.001-0.009-0.002-0.015-0.003c-0.009-0.003-0.021-0.005-0.029-0.008
			c-0.028-0.008-0.058-0.014-0.09-0.018c-0.056-0.009-0.121-0.014-0.197-0.016c0.074-0.113,0.153-0.236,0.235-0.372
			c3.101-5.07,6.194-10.144,9.305-15.208c0.182,0.219,0.364,0.437,0.546,0.655c-2.692,5.241-5.427,10.458-8.277,15.606
			c-0.124,0.222-0.249,0.442-0.373,0.663C35.504,26.472,35.173,26.045,34.724,25.819z M44.229,19.048
			c-0.47,1.052-0.964,2.092-1.482,3.119c-2.128,3.603-4.316,7.167-6.582,10.682c0.04-0.666,0.063-1.339,0.064-2
			c2.613-3.962,5.224-7.926,7.849-11.882C44.384,18.507,44.456,18.544,44.229,19.048z M47.537,36.619c0,0.892,0,1.783,0,2.675
			c-0.111,0.231-0.223,0.463-0.332,0.694c-0.083,0.175-0.128,0.329-0.155,0.467c-0.149-0.01-0.328-0.02-0.577-0.02
			c-0.166,0-0.332,0-0.498,0c0.146-0.144,0.273-0.304,0.339-0.485c0.408-1.127,0.815-2.254,1.224-3.382
			C47.537,36.586,47.537,36.603,47.537,36.619z M47.537,30.536c-0.293,0.829-0.587,1.658-0.882,2.486
			c-0.186,0.521-0.572,1.323-0.868,1.789c-1.115,1.755-2.284,3.518-3.516,5.254c-0.318,0.451-0.376,0.415-0.121-0.074
			c1.36-2.612,2.737-5.219,4.16-7.804c0.408-0.74,0.817-1.479,1.228-2.221C47.537,30.156,47.537,30.347,47.537,30.536z
			 M48.852,16.153c0.848,1.018,1.696,2.036,2.544,3.055c-0.022,0.044-0.047,0.089-0.071,0.133
			c-4.094,6.836-8.079,13.735-11.988,20.679c-0.086,0.154-0.105,0.29-0.097,0.416c-0.277,0-0.556,0-0.834,0
			c-2.467,0-2.591-0.367-2.591-2.73c0-0.268,0.021-0.617,0.049-1.011c3.413-4.802,6.62-9.737,9.241-14.966
			c1.161-1.969,2.312-3.945,3.459-5.923C48.659,15.921,48.756,16.037,48.852,16.153z"/>
	</g>
</g>
</svg>